<svg width="18" height="14" viewBox="0 0 18 14" fill="none" xmlns="http://www.w3.org/2000/svg">
<path d="M16.9269 7.36439L10.7394 13.5519C10.6416 13.643 10.5123 13.6926 10.3788 13.6902C10.2452 13.6878 10.1177 13.6337 10.0233 13.5393C9.92879 13.4448 9.87467 13.3173 9.87232 13.1838C9.86996 13.0502 9.91954 12.9209 10.0106 12.8231L15.3173 7.51564H1.4375C1.30075 7.51564 1.1696 7.46132 1.0729 7.36462C0.9762 7.26792 0.921875 7.13677 0.921875 7.00002C0.921875 6.86326 0.9762 6.73211 1.0729 6.63542C1.1696 6.53872 1.30075 6.48439 1.4375 6.48439H15.3173L10.0106 1.17689C9.91954 1.07915 9.86996 0.949864 9.87232 0.816282C9.87467 0.6827 9.92879 0.555248 10.0233 0.460776C10.1177 0.366305 10.2452 0.312191 10.3788 0.309834C10.5123 0.307477 10.6416 0.357061 10.7394 0.448141L16.9269 6.63564C17.0234 6.73232 17.0777 6.86338 17.0777 7.00002C17.0777 7.13666 17.0234 7.26771 16.9269 7.36439Z" fill="#1370DD"/>
</svg>
